<svg xmlns="http://www.w3.org/2000/svg" version="1.1" xmlns:xlink="http://www.w3.org/1999/xlink" xmlns:svgjs="http://svgjs.com/svgjs" width="512" height="512" x="0" y="0" viewBox="0 0 512.001 512.001" style="enable-background:new 0 0 512 512" xml:space="preserve" class=""><g>
<path xmlns="http://www.w3.org/2000/svg" style="" d="M124.72,254.191H83.396v-42.668c0.015-72.496,58.994-131.472,131.472-131.472h39.83v41.324h-39.83  c-49.697,0-90.137,40.442-90.149,90.153V254.191z" fill="#ffffff" data-original="#f9c436" class=""></path>
<g xmlns="http://www.w3.org/2000/svg">
	<path style="" d="M299.288,35.429h-46.373c-10.19,0-18.451,8.261-18.451,18.451v140.045   c0,10.19,8.261,18.451,18.451,18.451h47.623l2.355-86.8" fill="#17c39a" data-original="#2e88cc" class=""></path>
	<path style="" d="M380.985,8.466c-64.682,0-117.111,52.44-117.111,117.111c0,34.681,15.073,65.839,39.02,87.265   c12.314,11.044,26.974,19.505,43.142,24.546c11.044,3.451,22.78,5.31,34.949,5.31c64.682,0,117.111-52.44,117.111-117.122   C498.096,60.905,445.667,8.466,380.985,8.466z M380.985,203.668c-12.562,0-24.433-2.965-34.949-8.244   c-25.579-12.821-43.142-39.278-43.142-69.837v-0.01c0.01-43.132,34.97-78.081,78.091-78.081s78.091,34.96,78.091,78.091   C459.077,168.708,424.106,203.668,380.985,203.668z" fill="#17c39a" data-original="#2e88cc" class=""></path>
</g>
<path xmlns="http://www.w3.org/2000/svg" style="" d="M346.036,195.424v41.964c-16.168-5.041-30.827-13.502-43.142-24.546v-87.255  C302.894,156.146,320.456,182.604,346.036,195.424z" fill="#17c39a" data-original="#2279af" class=""></path>
<g xmlns="http://www.w3.org/2000/svg">
	<path style="" d="M496.976,108.994c4.477,4.119,7.277,10.029,7.277,16.59c0,6.58-2.818,12.509-7.296,16.629   c-4.025,3.705-9.398,5.967-15.299,5.967c-12.481,0-22.605-10.124-22.595-22.595c0-12.481,10.115-22.595,22.595-22.595   C487.568,102.979,492.941,105.261,496.976,108.994z" fill="#ffffff" data-original="#4e555e" class=""></path>
	<circle style="" cx="271.652" cy="81.717" r="17.045" fill="#ffffff" data-original="#4e555e" class=""></circle>
</g>
<g xmlns="http://www.w3.org/2000/svg">
	<path style="" d="M124.911,302.227l86.8-2.355v-47.623c0-10.19-8.261-18.451-18.451-18.451H53.214   c-10.19,0-18.451,8.261-18.451,18.451v46.373" fill="#17c39a" data-original="#2e88cc" class=""></path>
	<path style="" d="M124.911,497.43c64.682,0,117.122-52.429,117.122-117.111c0-12.17-1.86-23.906-5.31-34.949   c-5.041-16.168-13.502-30.827-24.546-43.142c-21.426-23.947-52.584-39.02-87.265-39.02C60.239,263.207,7.8,315.637,7.8,380.319   C7.8,445,60.239,497.43,124.911,497.43z M124.921,458.41c-43.132,0-78.091-34.97-78.091-78.091s34.949-78.081,78.081-78.091h0.01   c30.559,0,57.016,17.563,69.837,43.142c5.279,10.517,8.244,22.387,8.244,34.949C203.002,423.44,168.042,458.41,124.921,458.41z" fill="#17c39a" data-original="#2e88cc" class=""></path>
</g>
<path xmlns="http://www.w3.org/2000/svg" style="" d="M194.758,345.369h41.964c-5.041-16.168-13.502-30.827-24.546-43.142h-87.255  C155.48,302.227,181.937,319.79,194.758,345.369z" fill="#17c39a" data-original="#2279af" class=""></path>
<g xmlns="http://www.w3.org/2000/svg">
	<path style="" d="M108.328,496.309c4.119,4.477,10.029,7.277,16.59,7.277c6.58,0,12.509-2.818,16.629-7.296   c3.705-4.025,5.967-9.398,5.967-15.299c0-12.481-10.124-22.605-22.595-22.595c-12.481,0-22.595,10.115-22.595,22.595   C102.314,486.901,104.595,492.274,108.328,496.309z" fill="#ffffff" data-original="#4e555e" class=""></path>
	<circle style="" cx="81.047" cy="270.99" r="17.045" fill="#ffffff" data-original="#4e555e" class=""></circle>
</g>
<path xmlns="http://www.w3.org/2000/svg" d="M83.393,220.88c4.279,0,7.748-3.469,7.748-7.748v-1.61c0.02-67.683,55.072-123.182,122.72-123.716  c4.279-0.033,7.72-3.53,7.686-7.809c-0.033-4.258-3.495-7.687-7.746-7.687c-0.021,0-0.042,0-0.063,0  c-76.124,0.6-138.073,63.049-138.094,139.209v1.612C75.645,217.41,79.114,220.88,83.393,220.88z" fill="#000000" data-original="#000000" class=""></path>
<path xmlns="http://www.w3.org/2000/svg" d="M213.802,113.634c-0.03,0-0.061,0-0.091,0c-53.333,0.616-96.731,44.53-96.743,97.895v1.601c0,4.279,3.469,7.748,7.748,7.748  c4.279,0,7.748-3.469,7.748-7.748v-1.6c0.009-44.918,36.536-81.883,81.424-82.401c4.279-0.05,7.708-3.558,7.658-7.837  C221.499,117.045,218.04,113.634,213.802,113.634z" fill="#000000" data-original="#000000" class=""></path>
<path xmlns="http://www.w3.org/2000/svg" d="M380.985,211.416c34.171,0,65.065-20.25,78.709-51.589c1.708-3.924-0.089-8.489-4.013-10.197  c-3.924-1.709-8.488,0.089-10.197,4.011c-11.18,25.683-36.498,42.278-64.5,42.278c-18.12,0-35.331-6.871-48.458-19.348  c-3.102-2.948-8.005-2.822-10.955,0.279c-2.948,3.101-2.822,8.006,0.279,10.954C337.871,203.031,358.873,211.416,380.985,211.416z" fill="#000000" data-original="#000000" class=""></path>
<path xmlns="http://www.w3.org/2000/svg" d="M493.249,160.03c-3.994-1.522-8.474,0.485-9.997,4.485c-7.807,20.506-21.47,38.036-39.514,50.698  c-18.44,12.939-40.131,19.777-62.74,19.777c-0.006,0-0.017,0-0.023,0c-15.045,0-32.949-4.643-50.415-13.073  c-3.853-1.861-8.486-0.244-10.345,3.61c-1.861,3.853-0.244,8.486,3.61,10.346c19.523,9.424,39.82,14.614,57.148,14.614  c0.01,0,0.019,0,0.027,0c25.807,0,50.58-7.811,71.64-22.59c20.588-14.447,36.181-34.458,45.093-57.87  C499.257,166.03,497.248,161.553,493.249,160.03z" fill="#000000" data-original="#000000" class=""></path>
<path xmlns="http://www.w3.org/2000/svg" d="M502.238,103.307c-5.622-5.203-12.916-8.066-20.531-8.066c-0.017,0-0.033,0-0.05,0c-16.729,0-30.341,13.609-30.344,30.338  c-0.006,8.104,3.149,15.725,8.885,21.458c5.733,5.733,13.354,8.89,21.459,8.89c7.636,0,14.932-2.846,20.545-8.013  c6.226-5.729,9.798-13.867,9.798-22.33C512.001,117.134,508.437,109.009,502.238,103.307z M491.709,136.512  c-2.746,2.527-6.315,3.919-10.051,3.919c-3.967,0-7.697-1.546-10.503-4.351c-2.804-2.805-4.347-6.53-4.344-10.49  c0-0.002,0-0.003,0-0.005c0-8.186,6.66-14.848,14.86-14.848c0.009,0,0.017,0,0.024,0c3.713,0,7.27,1.4,10.035,3.959  c3.079,2.833,4.775,6.7,4.775,10.889C496.504,129.725,494.758,133.707,491.709,136.512z" fill="#000000" data-original="#000000" class=""></path>
<path xmlns="http://www.w3.org/2000/svg" d="M428.594,54.151c-3.559-2.376-8.371-1.418-10.746,2.14c-2.377,3.558-1.419,8.37,2.138,10.747  c11.283,7.536,20.101,18.075,25.499,30.474c1.27,2.916,4.118,4.657,7.109,4.657c1.032,0,2.082-0.208,3.088-0.646  c3.924-1.708,5.72-6.273,4.013-10.197C453.107,76.197,442.353,63.341,428.594,54.151z" fill="#000000" data-original="#000000" class=""></path>
<path xmlns="http://www.w3.org/2000/svg" d="M380.978,55.244c6.053,0.043,12.104,0.771,17.922,2.298c4.139,1.087,8.374-1.388,9.46-5.528  c1.087-4.139-1.388-8.375-5.528-9.461c-7.091-1.862-14.436-2.805-21.826-2.805c-0.01,0-0.022,0-0.031,0  c-47.292,0-85.772,38.442-85.829,85.722l-2.147,79.161h-40.084c-5.902,0-10.703-4.801-10.703-10.703V53.88  c0-5.902,4.801-10.703,10.703-10.703h46.373c0.402,0,0.802-0.031,1.198-0.093c6.345-0.993,12.535-3.503,17.896-7.258  c0.086-0.06,0.169-0.122,0.253-0.185c19.328-13.399,42.028-20.114,65.654-19.43c44.474,1.309,83.332,28.899,98.997,70.29  c1.516,4.003,5.992,6.016,9.989,4.504c4.002-1.515,6.019-5.987,4.504-9.989c-17.895-47.284-62.264-78.8-113.038-80.295  c-27.069-0.789-53.054,6.94-75.173,22.349c-0.091,0.063-0.181,0.129-0.27,0.195c-3.275,2.255-6.856,3.74-10.654,4.415h-45.733  c-14.447,0-26.199,11.752-26.199,26.199v140.046c0,14.447,11.752,26.199,26.199,26.199h47.624c4.197,0,7.631-3.342,7.745-7.537  l2.354-86.801c0.002-0.069,0.003-0.139,0.003-0.21C310.642,86.795,342.194,55.244,380.978,55.244z" fill="#000000" data-original="#000000" class=""></path>
<path xmlns="http://www.w3.org/2000/svg" d="M246.859,81.714c0,13.671,11.122,24.793,24.794,24.793s24.793-11.122,24.793-24.793s-11.122-24.793-24.793-24.793  S246.859,68.043,246.859,81.714z M280.95,81.714c0,5.126-4.171,9.297-9.297,9.297c-5.126,0-9.298-4.171-9.298-9.297  c0-5.126,4.172-9.297,9.298-9.297C276.779,72.417,280.95,76.588,280.95,81.714z" fill="#000000" data-original="#000000" class=""></path>
<path xmlns="http://www.w3.org/2000/svg" d="M210.75,380.318c0-22.113-8.386-43.113-23.611-59.134c-2.948-3.102-7.854-3.226-10.955-0.279  c-3.101,2.948-3.226,7.853-0.279,10.955c12.477,13.128,19.348,30.337,19.348,48.458c0,28.002-16.595,53.32-42.277,64.499  c-3.924,1.708-5.72,6.273-4.013,10.197c1.27,2.917,4.118,4.658,7.109,4.658c1.032,0,2.082-0.208,3.089-0.646  C190.501,445.384,210.75,414.49,210.75,380.318z" fill="#000000" data-original="#000000" class=""></path>
<path xmlns="http://www.w3.org/2000/svg" d="M224.862,319.547c-3.853,1.86-5.469,6.492-3.61,10.346c8.431,17.466,13.074,35.371,13.074,50.416  c0.004,22.614-6.835,44.317-19.779,62.762c-12.662,18.043-30.193,31.707-50.698,39.513c-3.999,1.523-6.006,5.999-4.485,9.998  c1.178,3.092,4.12,4.993,7.243,4.993c0.916,0,1.848-0.163,2.755-0.509c23.411-8.912,43.422-24.506,57.87-45.093  c14.784-21.068,22.595-45.849,22.59-71.666c0-17.329-5.19-37.625-14.614-57.151C233.348,319.303,228.717,317.687,224.862,319.547z" fill="#000000" data-original="#000000" class=""></path>
<path xmlns="http://www.w3.org/2000/svg" d="M124.937,450.647c-0.008,0-0.017,0-0.024,0c-16.729,0.003-30.338,13.614-30.338,30.331  c-0.012,7.645,2.852,14.958,8.051,20.577c5.718,6.215,13.843,9.779,22.293,9.779c8.463,0,16.602-3.571,22.329-9.797  c5.168-5.615,8.014-12.912,8.014-20.546c0-8.106-3.157-15.727-8.89-21.459C140.643,453.801,133.031,450.647,124.937,450.647z   M135.845,491.044c-2.803,3.047-6.785,4.794-10.926,4.794c-4.189,0-8.055-1.696-10.903-4.791c-2.549-2.755-3.95-6.323-3.943-10.056  c0-8.186,6.66-14.847,14.848-14.847c0.006,0,0.011,0,0.018,0c3.956,0,7.676,1.542,10.479,4.344  c2.806,2.806,4.351,6.536,4.351,10.502C139.766,484.726,138.373,488.296,135.845,491.044z" fill="#000000" data-original="#000000" class=""></path>
<path xmlns="http://www.w3.org/2000/svg" d="M85.834,482.62c-41.391-15.666-68.982-54.523-70.289-98.994c-0.358-12.329,1.308-24.474,4.953-36.096  c1.281-4.084-0.991-8.431-5.075-9.712c-4.085-1.28-8.431,0.991-9.712,5.075c-4.162,13.272-6.066,27.129-5.656,41.188  c1.493,50.77,33.01,95.138,80.294,113.035c0.903,0.342,1.83,0.503,2.741,0.503c3.128,0,6.075-1.908,7.248-5.007  C91.853,488.607,89.836,484.135,85.834,482.62z" fill="#000000" data-original="#000000" class=""></path>
<path xmlns="http://www.w3.org/2000/svg" d="M100.857,455.014c1.708-3.924-0.088-8.489-4.011-10.197c-25.686-11.18-42.276-36.501-42.268-64.509  c0-38.782,31.552-70.333,70.333-70.333c0.07,0,0.141-0.001,0.211-0.003l86.8-2.355c4.195-0.114,7.537-3.548,7.537-7.745v-47.624  c0-14.447-11.752-26.199-26.199-26.199H53.214c-14.447,0-26.199,11.752-26.199,26.199v45.733c-0.677,3.801-2.162,7.382-4.42,10.659  c-0.066,0.087-0.13,0.175-0.193,0.264c-2.023,2.904-3.942,5.926-5.706,8.98c-2.14,3.706-0.87,8.444,2.836,10.584  c3.705,2.14,8.443,0.87,10.584-2.836c1.505-2.605,3.14-5.185,4.862-7.67c0.062-0.082,0.122-0.163,0.181-0.247  c3.755-5.362,6.266-11.55,7.259-17.896c0.062-0.396,0.093-0.797,0.093-1.198v-46.374c0-5.902,4.801-10.703,10.703-10.703h140.046  c5.902,0,10.703,4.801,10.703,10.703v40.083l-79.161,2.148c-47.275,0.061-85.721,38.54-85.721,85.827  c-0.01,34.178,20.235,65.076,51.579,78.721c1.007,0.438,2.056,0.646,3.088,0.646C96.739,459.671,99.588,457.931,100.857,455.014z" fill="#000000" data-original="#000000" class=""></path>
<path xmlns="http://www.w3.org/2000/svg" d="M105.842,270.985c0-13.671-11.122-24.793-24.794-24.793c-13.671,0-24.793,11.122-24.793,24.793  c0,13.671,11.122,24.794,24.793,24.794C94.72,295.779,105.842,284.656,105.842,270.985z M71.751,270.985  c0-5.126,4.171-9.297,9.297-9.297c5.126,0,9.298,4.171,9.298,9.297c0,5.126-4.171,9.298-9.298,9.298  C75.922,280.282,71.751,276.112,71.751,270.985z" fill="#000000" data-original="#000000" class=""></path>
<g xmlns="http://www.w3.org/2000/svg">
</g>
<g xmlns="http://www.w3.org/2000/svg">
</g>
<g xmlns="http://www.w3.org/2000/svg">
</g>
<g xmlns="http://www.w3.org/2000/svg">
</g>
<g xmlns="http://www.w3.org/2000/svg">
</g>
<g xmlns="http://www.w3.org/2000/svg">
</g>
<g xmlns="http://www.w3.org/2000/svg">
</g>
<g xmlns="http://www.w3.org/2000/svg">
</g>
<g xmlns="http://www.w3.org/2000/svg">
</g>
<g xmlns="http://www.w3.org/2000/svg">
</g>
<g xmlns="http://www.w3.org/2000/svg">
</g>
<g xmlns="http://www.w3.org/2000/svg">
</g>
<g xmlns="http://www.w3.org/2000/svg">
</g>
<g xmlns="http://www.w3.org/2000/svg">
</g>
<g xmlns="http://www.w3.org/2000/svg">
</g>
</g></svg>