<svg xmlns="http://www.w3.org/2000/svg" version="1.1" xmlns:xlink="http://www.w3.org/1999/xlink" xmlns:svgjs="http://svgjs.com/svgjs" width="512" height="512" x="0" y="0" viewBox="0 0 512 512" style="enable-background:new 0 0 512 512" xml:space="preserve" class=""><g><g xmlns="http://www.w3.org/2000/svg"><g><path d="m438 175.5h-364c-6.627 0-12-5.373-12-12v-144c0-6.627 5.373-12 12-12h364c6.627 0 12 5.373 12 12v144c0 6.627-5.373 12-12 12z" fill="#f3f0f3" data-original="#f3f0f3" class=""></path><circle cx="170.613" cy="91.5" fill="#ee6161" r="52.537" data-original="#ee6161" class=""></circle><path d="m438 7.5h-30c6.627 0 12 5.373 12 12v144c0 6.627-5.373 12-12 12h30c6.627 0 12-5.373 12-12v-144c0-6.627-5.373-12-12-12z" fill="#e2dee2" data-original="#e2dee2"></path><path d="m420.051 166.206c11.953 4.355 18.113 17.576 13.758 29.53l-63.614 174.591c-6.969 19.125-28.122 28.981-47.247 22.012l-8.657-3.154 76.232-209.221c4.354-11.954 17.574-18.113 29.528-13.758z" fill="#ffffff" data-original="#ffcebf" class=""></path><path d="m345.833 302.61 43.287 15.772-18.927 51.945c-6.969 19.125-28.122 28.981-47.247 22.012l-8.657-3.154z" fill="#17c39a" data-original="#ffe177" class=""></path><path d="m91.949 166.206c-11.953 4.355-18.113 17.576-13.757 29.53l63.614 174.591c6.969 19.125 28.122 28.981 47.247 22.012l8.657-3.154-76.232-209.221c-4.355-11.954-17.575-18.113-29.529-13.758z" fill="#ffffff" data-original="#ffcebf" class=""></path><path d="m166.167 302.61-43.287 15.772 18.927 51.945c6.969 19.125 28.122 28.981 47.247 22.012l8.657-3.154z" fill="#17c39a" data-original="#ffe177" class=""></path><path d="m186.808 359.584h138.213v144.916h-138.213z" fill="#17c39a" transform="matrix(-1 0 0 -1 511.828 864.084)" data-original="#5f99d7" class=""></path><path d="m295.021 359.584h30v144.916h-30z" fill="#13866b" data-original="#3c87d0" class=""></path><path d="m255.914 390.298c12.722 0 23.036-10.313 23.036-23.035v-53.749h-46.071v53.749c0 12.722 10.313 23.035 23.035 23.035z" fill="#ffb09e" data-original="#ffb09e" class=""></path><g fill="#ffb09e"><path d="m211.784 280.174c0 10.772-7.105 19.505-15.869 19.505s-13.856-10.029-13.856-20.801 5.091-18.209 13.856-18.209 15.869 8.733 15.869 19.505z" fill="#ffb09e" data-original="#ffb09e" class=""></path><path d="m300.044 280.174c0 10.772 7.105 19.505 15.869 19.505s13.856-10.029 13.856-20.801-5.091-18.209-13.856-18.209-15.869 8.733-15.869 19.505z" fill="#ffb09e" data-original="#ffb09e" class=""></path></g><path d="m208.425 291.288v-32.315c0-26.228 21.262-47.49 47.489-47.49 26.228 0 47.49 21.262 47.49 47.49v32.136c0 26.277-21.302 47.579-47.579 47.579-26.179 0-47.4-21.222-47.4-47.4z" fill="#ffffff" data-original="#ffcebf" class=""></path><path d="m255.914 211.484c-5.244 0-10.283.863-15 2.432 18.874 6.281 32.49 24.073 32.49 45.057v32.136c0 21.028-13.648 38.858-32.564 45.147 4.712 1.57 9.746 2.432 14.985 2.432 26.277 0 47.579-21.302 47.579-47.579v-32.136c0-26.227-21.262-47.489-47.49-47.489z" fill="#ffb09e" data-original="#ffb09e" class=""></path><path d="m232.879 349.423 23.036 40.875-9.777 7.031c-6.735 4.844-16.228 2.068-19.294-5.64l-12.767-32.105z" fill="#f3f0f3" data-original="#f3f0f3" class=""></path><path d="m278.95 349.423-23.036 40.875 9.777 7.031c6.735 4.844 16.228 2.068 19.294-5.64l12.767-32.105z" fill="#f3f0f3" data-original="#f3f0f3" class=""></path><path d="m256.118 196.397c-73.545 0-52.829 69.634-51.243 73.372.718 1.697 1.509 4.802 2.134 7.563.555 2.447 3.604 3.305 5.354 1.506 2.775-2.853 5.871-6.501 5.687-8.418-.527-5.491-3.425-39.224 9.223-36.044 12.644 3.18 17.851 5.491 28.422 5.491 10.572 0 15.778-2.311 28.422-5.491 12.648-3.18 9.75 30.553 9.223 36.044-.184 1.916 3.174 5.572 6.181 8.433 1.851 1.761 4.915.712 5.308-1.813.418-2.689.994-5.637 1.686-7.272 2.357-5.557 23.148-73.371-50.397-73.371z" fill="#9b5e5e" data-original="#9b5e5e" class=""></path></g><g><g><path d="m438 0h-49.62c-9.931.344-9.923 14.66 0 15h49.62c2.481 0 4.5 2.019 4.5 4.5v144c0 2.481-2.019 4.5-4.5 4.5h-2.642c-3.305-3.875-7.622-6.974-12.738-8.836-12.275-4.479-25.609-.551-33.66 8.836h-265.918c-8.048-9.387-21.381-13.316-33.657-8.837-5.118 1.863-9.436 4.962-12.741 8.837h-2.644c-2.481 0-4.5-2.019-4.5-4.5v-144c0-2.481 2.019-4.5 4.5-4.5h280.24c9.931-.344 9.923-14.66 0-15h-280.24c-10.752 0-19.5 8.748-19.5 19.5v144c0 9.302 6.547 17.103 15.275 19.039-.914 5.12-.534 10.539 1.368 15.769l18.014 49.435c1.417 3.891 5.721 5.897 9.614 4.479s5.897-5.723 4.479-9.615l-18.013-49.431c-2.93-8.055 1.232-16.99 9.282-19.92 8.042-2.937 16.978 1.225 19.913 9.272l42.122 115.602-29.197 10.638-12.246-33.607c-1.418-3.891-5.723-5.899-9.614-4.479-3.893 1.418-5.897 5.723-4.479 9.615l33.742 92.599c6.836 18.825 25.374 30.351 44.548 29.082v102.522c0 4.142 3.357 7.5 7.5 7.5h138.21c4.143 0 7.5-3.358 7.5-7.5v-26.141c-.344-9.931-14.66-9.923-15 0v18.641h-123.208v-103.782c.002-.093.002-.187 0-.281v-25.857h14.677l10.888 27.38c2.32 5.835 7.107 10.192 13.135 11.955 5.971 1.754 12.397.686 17.507-2.997l5.397-3.882 5.397 3.882c5.11 3.683 11.536 4.751 17.507 2.997 6.027-1.762 10.814-6.12 13.135-11.955l10.889-27.38h14.678v25.79c-.002.1-.002.201 0 .301v49.282c.344 9.931 14.66 9.923 15 0v-40.483c19.232 1.359 37.85-10.161 44.718-29.072l63.62-174.594c1.902-5.229 2.282-10.647 1.368-15.766 8.728-1.936 15.274-9.737 15.274-19.039v-144c0-10.751-8.748-19.499-19.5-19.499zm-118.176 352.08h-20.183l-13.191-7.129v-8.084c10.76-7.226 18.843-18.143 22.421-30.923 31.316 10.937 40.159-49.673 9.071-52.684 1.41-12.509.581-28.427-7.978-41.354-18.241-30.926-89.36-30.958-107.624.254-8.522 12.874-9.558 28.734-8.428 41.097-31.092 2.972-22.297 63.547 8.983 52.71 2.494 9.042 7.297 17.331 14.113 24.147 2.591 2.591 5.395 4.891 8.373 6.883v7.954l-13.192 7.13h-20.008l-61.61-169.081h250.859zm-63.91 22.941-15.534-27.565v-3.456c9.873 2.937 21.267 2.901 31.07-.068v3.523zm59.996-106.851c11.301-.227 6.39 33.364-5.01 21.515v-7.725c.667-1.138 1.127-2.41 1.338-3.764.661-4.237 1.163-5.456 1.181-5.499.433-1.022.974-2.535 1.54-4.445.314-.054.632-.082.951-.082zm-14.352-7.909c-.021.056-.041.111-.06.167.457-15.689-2.066-25.992-7.533-30.691-3.251-2.829-7.564-3.697-11.677-2.635-3.05.767-5.684 1.486-8.007 2.121-13.353 4.166-23.819 4.166-37.173 0-2.323-.635-4.956-1.354-8.007-2.121-4.295-1.08-8.443-.145-11.677 2.635-5.292 4.548-7.825 14.348-7.568 29.2-1.847-9.784-3.211-26.581 5.3-38.957 12.863-21.707 69.891-21.548 82.298.201 8.342 12.597 6.367 30.292 4.104 40.08zm-105.037 7.942c.559 2.081 1.081 3.626 1.447 4.487.15.357.722 1.867 1.727 6.299.25 1.102.667 2.138 1.226 3.08v7.614c-6.279 6.588-11.301-.792-11.36-10.804-.093-3.372.902-11.375 6.96-10.676zm19.399 17.361c.651-.425 1.262-.924 1.818-1.496 5.919-6.083 8.172-10.245 7.777-14.363-1.412-14.73-.25-24.407 1.213-27.728 2.379.611 4.512 1.194 6.428 1.717 15.411 4.855 29.674 4.852 45.077 0 1.915-.523 4.047-1.105 6.428-1.717 1.463 3.32 2.625 12.998 1.213 27.728-.412 4.298 1.965 8.386 8.478 14.583.484.46 1.002.868 1.549 1.223v5.598c.094 35.356-43.369 53.5-68.287 28.397-7.541-7.541-11.693-17.562-11.693-28.217v-5.725zm-67.064 82.198-16.362-44.901 29.197-10.638 17.618 48.352v26.354c-13.069 1.298-25.803-6.393-30.453-19.167zm92.903 23.478c-1.812 1.302-3.622 1.044-4.54.777-.918-.269-2.582-1.028-3.406-3.1l-10.302-25.907 6.452-3.487 16.12 28.606zm36.257-2.323c-.824 2.072-2.488 2.832-3.406 3.1-.92.267-2.729.524-4.54-.777l-4.324-3.11 16.121-28.606 6.452 3.487zm85.127-21.153c-4.677 12.849-17.485 20.539-30.623 19.148v-25.859l17.792-48.83 29.194 10.637zm63.62-174.592-42.123 115.596-29.194-10.638 42.119-115.599c2.937-8.049 11.867-12.209 19.919-9.273 8.045 2.928 12.207 11.864 9.279 19.914z" fill="#000000" data-original="#000000" class=""></path><path d="m238.581 292.423c4.143 0 7.5-3.358 7.5-7.5v-4.271c-.344-9.931-14.66-9.923-15 0v4.271c0 4.142 3.357 7.5 7.5 7.5z" fill="#000000" data-original="#000000" class=""></path><path d="m273.404 292.423c4.143 0 7.5-3.358 7.5-7.5v-4.271c-.344-9.931-14.66-9.923-15 0v4.271c0 4.142 3.358 7.5 7.5 7.5z" fill="#000000" data-original="#000000" class=""></path><path d="m110.575 91.5c0 33.104 26.933 60.037 60.037 60.037 79.649-3.298 79.626-116.789 0-120.074-33.104 0-60.037 26.933-60.037 60.037zm60.037-45.037c9.715 0 18.721 3.092 26.087 8.344l-62.781 62.78c-21.175-29.224.333-71.329 36.694-71.124zm0 90.074c-9.715 0-18.721-3.092-26.086-8.343l62.781-62.781c21.177 29.225-.334 71.329-36.695 71.124z" fill="#000000" data-original="#000000" class=""></path><path d="m267.954 63.396h78.636c9.931-.344 9.923-14.66 0-15h-78.636c-9.931.344-9.923 14.66 0 15z" fill="#000000" data-original="#000000" class=""></path><path d="m393.359 78.034h-125.405c-9.931.344-9.923 14.66 0 15h125.405c9.931-.344 9.924-14.66 0-15z" fill="#000000" data-original="#000000" class=""></path><path d="m393.359 107.672h-125.405c-9.931.344-9.923 14.66 0 15h125.405c9.931-.344 9.924-14.66 0-15z" fill="#000000" data-original="#000000" class=""></path></g></g></g></g></svg>