<svg xmlns="http://www.w3.org/2000/svg" version="1.1" xmlns:xlink="http://www.w3.org/1999/xlink" xmlns:svgjs="http://svgjs.com/svgjs" width="512" height="512" x="0" y="0" viewBox="0 0 512 512" style="enable-background:new 0 0 512 512" xml:space="preserve" class=""><g><path xmlns="http://www.w3.org/2000/svg" d="m271.098 99.686h64.129v112.226h-64.129z" fill="#ffffff" data-original="#d6bdef" class=""></path><path xmlns="http://www.w3.org/2000/svg" d="m195.64 22.303c-1.596-7.99-10.05-13.038-18.298-9.802-5.512 2.163-8.68 8.039-8.213 13.941l2.329 29.382c.364 4.593-.251 9.172-1.837 13.498-4.877 13.309-14.931 45.696-8.856 72.735l14.138 53.822 64.129 32.065z" fill="#ffffff" data-original="#ffe07d" class=""></path><path xmlns="http://www.w3.org/2000/svg" d="m174.904 35.557c-1.044.154 3.49-23.469 2.438-23.056-5.512 2.163-8.68 8.039-8.212 13.941l2.329 29.382c.364 4.593-.251 9.172-1.837 13.498-4.877 13.309-14.931 45.696-8.856 72.735l46.202 53.822z" fill="#ffffff" data-original="#ffd064" class=""></path><path xmlns="http://www.w3.org/2000/svg" d="m195.64 22.303c-1.596-7.99-10.05-13.038-18.297-9.802-5.512 2.163-8.68 8.039-8.212 13.941l1.634 20.607 28.712-5.806z" fill="#ffffff" data-original="#c38c66" class=""></path><path xmlns="http://www.w3.org/2000/svg" d="m139.901 63.238c-3.469-7.373-12.888-10.241-20.117-5.118-4.831 3.424-6.495 9.889-4.622 15.506l9.321 27.961c1.457 4.371 1.96 8.963 1.461 13.544-1.536 14.091-3.513 47.945 8.88 72.732h64.129z" fill="#ffffff" data-original="#ffe07d" class=""></path><path xmlns="http://www.w3.org/2000/svg" d="m126.808 91.67c-.977.401-6.101-34.204-7.023-33.55-4.831 3.424-6.495 9.89-4.622 15.506l9.321 27.962c1.457 4.371 1.96 8.963 1.46 13.544-1.536 14.091-3.513 47.945 8.88 72.732l32.065-8.016z" fill="#ffffff" data-original="#ffd064" class=""></path><path xmlns="http://www.w3.org/2000/svg" d="m139.901 63.238c-3.469-7.373-12.888-10.241-20.117-5.119-4.831 3.424-6.495 9.89-4.622 15.506l6.537 19.611 26.476-12.535z" fill="#ffffff" data-original="#c38c66" class=""></path><path xmlns="http://www.w3.org/2000/svg" d="m206.969 179.847v-104.21c0-4.427 3.589-8.016 8.016-8.016h64.129c4.427 0 8.016 3.589 8.016 8.016v104.21" fill="#ffffff" data-original="#b3e59f" class=""></path><path xmlns="http://www.w3.org/2000/svg" d="m287.13 155.799h-40.081c-8.854 0-16.032-7.178-16.032-16.032v-8.016h56.113z" fill="#ffffff" data-original="#ccf49f" class=""></path><path xmlns="http://www.w3.org/2000/svg" d="m206.969 67.621h80.161v64.129h-80.161z" fill="#ffffff" data-original="#dad8db" class=""></path><path xmlns="http://www.w3.org/2000/svg" d="m206.969 67.621h24.048v64.129h-24.048z" fill="#ffffff" data-original="#c8c5c9" class=""></path><path xmlns="http://www.w3.org/2000/svg" d="m452.121 108.658c-16.669-5.978-35.029 2.689-41.006 19.358l-18.84 51.83h68.381l10.824-30.182c5.977-16.669-2.69-35.028-19.359-41.006z" fill="#ffffff" data-original="#ffa95f" class=""></path><path xmlns="http://www.w3.org/2000/svg" d="m395.594 94.99-6.64-6.641c-3.007-3.007-4.696-7.085-4.696-11.336v-25.424c0-4.427-3.589-8.016-8.016-8.016h-16.032c-4.427 0-8.016 3.589-8.016 8.016v25.424c0 4.252-1.689 8.33-4.696 11.336l-6.64 6.641c-3.007 3.007-4.696 7.085-4.696 11.337v73.52h64.129v-73.52c-.001-4.253-1.69-8.331-4.697-11.337z" fill="#ffffff" data-original="#dbeaff" class=""></path><path xmlns="http://www.w3.org/2000/svg" d="m368.226 75.637h-16.032v1.375c0 4.252-1.689 8.33-4.696 11.336l-6.64 6.641c-3.007 3.007-4.696 7.085-4.696 11.337v73.52h32.065v-104.209z" fill="#ffffff" data-original="#c3ddff" class=""></path><path xmlns="http://www.w3.org/2000/svg" d="m384.258 75.637h-32.065v-24.048c0-4.427 3.589-8.016 8.016-8.016h16.032c4.427 0 8.016 3.589 8.016 8.016v24.048z" fill="#ffffff" data-original="#b6b1b7" class=""></path><path xmlns="http://www.w3.org/2000/svg" d="m336.161 131.75h16.032c8.854 0 16.032 7.178 16.032 16.032v32.065h-32.065v-48.097z" fill="#ffffff" data-original="#b6b1b7" class=""></path><circle xmlns="http://www.w3.org/2000/svg" cx="127.742" cy="468.428" fill="#ffffff" r="32.065" data-original="#5d5360" class=""></circle><path xmlns="http://www.w3.org/2000/svg" d="m504.5 179.871h-424.383l63.743 166.714c9.333 24.411 34.283 39.146 60.167 35.535l272.839-38.071c15.843-2.211 27.633-15.76 27.633-31.757v-132.421z" fill="#17c39a" data-original="#ff8086" class=""></path><circle xmlns="http://www.w3.org/2000/svg" cx="472.435" cy="468.428" fill="#ffffff" r="32.065" data-original="#5d5360" class=""></circle><path xmlns="http://www.w3.org/2000/svg" d="m498.277 316.781-291.255 40.64c-1.846.258-3.72.388-5.575.388-16.477 0-31.509-10.356-37.401-25.77l-58.182-152.168h-25.747l63.743 166.714c9.333 24.411 34.284 39.146 60.167 35.534l272.839-38.07c14.606-2.038 25.643-13.746 27.297-28.091z" fill="#17c39a" data-original="#e5646e" class=""></path><path xmlns="http://www.w3.org/2000/svg" d="m239.968 106.357h16.032c4.142 0 7.5-3.358 7.5-7.5s-3.358-7.5-7.5-7.5h-16.032c-4.142 0-7.5 3.358-7.5 7.5s3.358 7.5 7.5 7.5z" fill="#000000" data-original="#000000" class=""></path><path xmlns="http://www.w3.org/2000/svg" d="m504.5 171.594h-33.215l7.254-20.226c3.568-9.948 3.048-20.689-1.464-30.246-1.881-3.985-4.37-7.558-7.345-10.636l24.173-27.293c2.746-3.101 2.458-7.841-.642-10.587-3.102-2.747-7.841-2.458-10.587.642l-17.111 19.32 17.973-50.116c1.398-3.899-.629-8.193-4.528-9.591-3.898-1.399-8.193.629-9.591 4.528l-17.973 50.116-.933-25.791c-.15-4.14-3.647-7.379-7.766-7.224-4.14.15-7.374 3.627-7.224 7.766l1.319 36.455c-11.778 1.355-22.591 7.981-29.048 18.272v-11.483c0-6.286-2.448-12.195-6.893-16.64l-6.641-6.641c-1.611-1.611-2.499-3.754-2.499-6.033v-25.426c0-8.556-6.961-15.516-15.517-15.516h-16.032c-8.556 0-15.516 6.96-15.516 15.516v25.424c0 2.279-.887 4.422-2.499 6.033l-6.641 6.641c-.788.788-1.51 1.625-2.171 2.499h-37.819v-24.564c0-4.142-3.358-7.5-7.5-7.5h-75.594l-7.04-37.628c-.007-.037-.014-.074-.021-.11-2.105-10.387-11.661-17.565-22.219-16.699-11.499.944-20.086 11.067-19.143 22.565l2.901 35.356c-1.373 3.439-4.43 11.547-7.243 22.116l-12.084-25.678c-4.512-9.589-15.495-14.292-25.549-10.941-10.945 3.649-16.881 15.521-13.233 26.467l11.217 33.652c-1.082 7.636-4.419 36.395 2.017 63.201h-36.795l-14.795-38.694c-5.816-15.213-20.667-25.435-36.955-25.435h-26.028c-4.142 0-7.5 3.358-7.5 7.5s3.358 7.5 7.5 7.5h26.028c10.112 0 19.333 6.346 22.944 15.792l22.809 59.653c1.143 2.988 3.988 4.823 7.007 4.823.89 0 1.796-.16 2.677-.497 3.869-1.479 5.806-5.815 4.327-9.684l-2.278-5.958h405.986v117.946c0 16.162-12.071 30.034-28.078 32.268l-259.614 36.225c-26.274 3.669-51.245-11.08-60.72-35.861l-43.079-112.667c-1.479-3.869-5.814-5.805-9.684-4.327-3.869 1.479-5.806 5.815-4.327 9.684l43.079 112.667c4.998 13.071 13.406 23.929 23.917 31.817l-22.732 54.557c-2.591-.535-5.272-.818-8.02-.818-21.816 0-39.564 17.749-39.564 39.564s17.749 39.564 39.564 39.564c19.252 0 35.327-13.824 38.843-32.064h241.722c4.142 0 7.5-3.358 7.5-7.5s-3.358-7.5-7.5-7.5h-241.723c-2.041-10.589-8.312-19.687-16.985-25.458l21.917-52.6c9.175 4.21 19.293 6.5 29.774 6.5 3.332 0 6.706-.231 10.092-.703l259.614-36.225c23.376-3.261 41.004-23.52 41.004-47.123v-125.446c0-4.142-3.358-7.5-7.5-7.5zm-54.911-56.705c6.176 2.215 11.121 6.703 13.921 12.636 1.698 3.596 2.479 7.463 2.343 11.326l-6.933-2.487c-3.9-1.399-8.193.629-9.591 4.528s.629 8.193 4.528 9.591l8.032 2.88-6.538 18.23h-47.559v-12.92l5.146-14.349 8.032 2.88c.836.3 1.691.442 2.531.442 3.077 0 5.962-1.908 7.06-4.97 1.398-3.899-.629-8.193-4.528-9.591l-8.032-2.88.174-.486c4.572-12.749 18.666-19.402 31.414-14.83zm-89.38-64.645h16.032c.285 0 .517.231.517.516v16.549h-17.065v-16.549c0-.285.232-.516.516-.516zm-14.049 49.221 6.641-6.641c2.961-2.961 5.03-6.575 6.085-10.515h18.679c1.055 3.94 3.124 7.553 6.085 10.515l6.641 6.641c1.611 1.612 2.499 3.754 2.499 6.033v66.096h-17.065v-24.64c0-12.976-10.557-23.532-23.532-23.532h-8.532v-17.924c0-2.279.888-4.422 2.499-6.033zm-2.499 38.957h8.532c4.705 0 8.532 3.828 8.532 8.532v24.64h-17.064zm-15-32.065v65.237h-33.097v-65.237zm-113.258 32.065h65.161v33.172h-65.161zm65.161-64.129v49.129h-65.161v-49.129zm-96.147-54.487c2.975-.25 5.667 1.766 6.281 4.683l2.225 11.892-12.904 2.253-1.021-12.439c-.268-3.256 2.164-6.122 5.419-6.389zm-57.601 42.699c2.846-.95 5.956.383 7.233 3.098l5.134 10.909-12.167 5.327-3.947-11.841c-1.032-3.098.649-6.46 3.747-7.493zm8.324 46.46c.201-1.207.104-2.444-.283-3.604l-3.077-9.232 13.793-6.04 28.302 60.142c1.764 3.748 6.232 5.355 9.979 3.593 3.748-1.764 5.356-6.232 3.593-9.979l-17.151-36.447c3.258-21.792 11.091-40.3 11.169-40.484.482-1.124.682-2.349.582-3.568l-.796-9.698 14.431-2.52 4.721 25.237v95.231h-62.834c-7.947-28.297-2.488-62.275-2.429-62.631zm-7.398 383.25c-13.545 0-24.564-11.02-24.564-24.564s11.02-24.564 24.564-24.564 24.565 11.02 24.565 24.564-11.02 24.564-24.565 24.564z" fill="#000000" data-original="#000000" class=""></path><path xmlns="http://www.w3.org/2000/svg" d="m127.822 460.15h-.081c-4.142 0-7.459 3.358-7.459 7.5s3.398 7.5 7.54 7.5 7.5-3.358 7.5-7.5-3.358-7.5-7.5-7.5z" fill="#000000" data-original="#000000" class=""></path><path xmlns="http://www.w3.org/2000/svg" d="m472.436 428.086c-21.816 0-39.564 17.749-39.564 39.564s17.749 39.564 39.564 39.564 39.564-17.748 39.564-39.564-17.749-39.564-39.564-39.564zm0 64.129c-13.545 0-24.564-11.02-24.564-24.564s11.02-24.564 24.564-24.564 24.564 11.018 24.564 24.563-11.02 24.565-24.564 24.565z" fill="#000000" data-original="#000000" class=""></path><path xmlns="http://www.w3.org/2000/svg" d="m472.516 460.15h-.08c-4.142 0-7.46 3.358-7.46 7.5s3.398 7.5 7.54 7.5 7.5-3.358 7.5-7.5-3.358-7.5-7.5-7.5z" fill="#000000" data-original="#000000" class=""></path><path xmlns="http://www.w3.org/2000/svg" d="m198.354 356.277c.657 0 1.325-.087 1.989-.27 3.995-1.096 6.344-5.223 5.248-9.217l-37.768-137.617c-1.096-3.995-5.226-6.346-9.217-5.248-3.995 1.096-6.344 5.223-5.248 9.217l37.768 137.617c.914 3.332 3.934 5.518 7.228 5.518z" fill="#000000" data-original="#000000" class=""></path><path xmlns="http://www.w3.org/2000/svg" d="m414.804 320.464v-109.306c0-4.142-3.358-7.5-7.5-7.5s-7.5 3.358-7.5 7.5v109.305c0 4.142 3.358 7.5 7.5 7.5s7.5-3.357 7.5-7.499z" fill="#000000" data-original="#000000" class=""></path><path xmlns="http://www.w3.org/2000/svg" d="m251.054 349.906c.409 0 .822-.033 1.238-.103 4.086-.679 6.848-4.542 6.169-8.627l-21.801-131.247c-.679-4.086-4.541-6.854-8.627-6.169-4.086.679-6.848 4.542-6.169 8.627l21.802 131.247c.608 3.67 3.787 6.272 7.388 6.272z" fill="#000000" data-original="#000000" class=""></path><path xmlns="http://www.w3.org/2000/svg" d="m363.702 327.175v-116.017c0-4.142-3.358-7.5-7.5-7.5s-7.5 3.358-7.5 7.5v116.017c0 4.142 3.358 7.5 7.5 7.5s7.5-3.358 7.5-7.5z" fill="#000000" data-original="#000000" class=""></path><path xmlns="http://www.w3.org/2000/svg" d="m305.074 342.367c.146 0 .292-.004.439-.013 4.135-.239 7.294-3.785 7.055-7.92l-7.147-123.709c-.238-4.136-3.793-7.299-7.92-7.055-4.135.239-7.294 3.785-7.055 7.92l7.147 123.709c.23 3.989 3.536 7.068 7.481 7.068z" fill="#000000" data-original="#000000" class=""></path><path xmlns="http://www.w3.org/2000/svg" d="m463.903 311.621v-100.487c0-4.142-3.358-7.5-7.5-7.5s-7.5 3.358-7.5 7.5v100.487c0 4.142 3.358 7.5 7.5 7.5s7.5-3.358 7.5-7.5z" fill="#000000" data-original="#000000" class=""></path></g></svg>