<svg xmlns="http://www.w3.org/2000/svg" version="1.1" xmlns:xlink="http://www.w3.org/1999/xlink" xmlns:svgjs="http://svgjs.com/svgjs" width="512" height="512" x="0" y="0" viewBox="0 0 512 512" style="enable-background:new 0 0 512 512" xml:space="preserve" class=""><g><g xmlns="http://www.w3.org/2000/svg"><g><g><path clip-rule="evenodd" d="m228.234 101.936h55.531c7.768 0 14.117 6.35 14.117 14.116 0 7.767-6.35 14.118-14.117 14.118h-55.531c-7.766 0-14.115-6.351-14.115-14.118s6.35-14.116 14.115-14.116z" fill="#17c39a" fill-rule="evenodd" data-original="#1480ae" class=""></path></g><g><path clip-rule="evenodd" d="m259.5 101.936h24.266c7.768 0 14.117 6.35 14.117 14.116 0 7.767-6.35 14.118-14.117 14.118h-24.266c7.768 0 14.117-6.351 14.117-14.118s-6.35-14.116-14.117-14.116z" fill="#17c39a" fill-rule="evenodd" data-original="#047297" class=""></path></g><g><path clip-rule="evenodd" d="m229.312 229.439-154.236 89.038v178.273c0 4.252 3.486 7.767 7.768 7.767h138.701c4.252 0 7.768-3.515 7.768-7.767v-267.311z" fill="#ffffff" fill-rule="evenodd" data-original="#fcdab4" class=""></path></g><g><path clip-rule="evenodd" d="m282.687 229.439 154.236 89.037v178.274c0 4.252-3.486 7.767-7.767 7.767h-138.701c-4.279 0-7.768-3.515-7.768-7.767z" fill="#ffffff" fill-rule="evenodd" data-original="#fcdab4" class=""></path></g><g><path clip-rule="evenodd" d="m412.658 304.474 24.266 14.003v178.273c0 4.252-3.486 7.767-7.767 7.767h-24.264c4.279 0 7.766-3.515 7.766-7.767-.001-64.093-.001-128.185-.001-192.276z" fill="#ffffff" fill-rule="evenodd" data-original="#febc99" class=""></path></g><g><path clip-rule="evenodd" d="m229.312 229.439-24.267 14.003v253.308c0 4.252-3.514 7.767-7.766 7.767h24.265c4.252 0 7.768-3.515 7.768-7.767z" fill="#ffffff" fill-rule="evenodd" data-original="#febc99" class=""></path></g><g><path clip-rule="evenodd" d="m19.856 279.442 202.708-117.015c4.139-2.41 6.748-1.105 6.748 3.883v67.977l-176.629 101.991c-4.877 2.807-8.25 1.275-10.632-2.863l-25.029-43.371c-2.75-4.762-1.049-8.361 2.834-10.602z" fill="#17c39a" fill-rule="evenodd" data-original="#ff6270" class=""></path></g><g><path clip-rule="evenodd" d="m492.114 279.442-202.708-117.014c-4.139-2.41-6.719-1.105-6.719 3.883v67.977l176.629 101.991c4.877 2.807 8.221 1.275 10.602-2.863l25.06-43.371c2.749-4.763 1.048-8.362-2.864-10.603z" fill="#17c39a" fill-rule="evenodd" data-original="#ff6270" class=""></path></g><g><path clip-rule="evenodd" d="m492.114 279.442-14.598-8.447c1.332 2.154 1.389 4.819-.453 8.051l-26.251 45.44c-1.246 2.183-2.75 3.656-4.592 4.224l13.096 7.568c4.877 2.807 8.221 1.275 10.602-2.863l25.06-43.371c2.749-4.762 1.048-8.361-2.864-10.602z" fill="#17c39a" fill-rule="evenodd" data-original="#f64b51" class=""></path></g><g><path clip-rule="evenodd" d="m202.268 174.135 20.296-11.707c4.139-2.41 6.748-1.105 6.748 3.883v67.977l-24.267 14.003v-69.138c.001-3.09-1.019-4.763-2.777-5.018z" fill="#17c39a" fill-rule="evenodd" data-original="#f64b51" class=""></path></g><g><path clip-rule="evenodd" d="m182.141 504.517h39.403c4.252 0 7.768-3.515 7.768-7.767v-105.167h-39.403c-5.441 0-7.768 2.835-7.768 7.768z" fill="#17c39a" fill-rule="evenodd" data-original="#95d6a4" class=""></path></g><g><path clip-rule="evenodd" d="m329.858 504.517h-39.403c-4.279 0-7.768-3.515-7.768-7.767v-105.167h39.403c5.443 0 7.768 2.835 7.768 7.768z" fill="#17c39a" fill-rule="evenodd" data-original="#95d6a4" class=""></path></g><g><path clip-rule="evenodd" d="m329.858 504.517h-24.266v-105.166c0-4.933-2.324-7.768-7.767-7.768h24.265c5.443 0 7.768 2.835 7.768 7.768z" fill="#17c39a" fill-rule="evenodd" data-original="#78c2a4" class=""></path></g><g><path clip-rule="evenodd" d="m197.28 504.517h24.265c4.252 0 7.768-3.515 7.768-7.767v-105.167h-24.267v105.167c0 4.252-3.514 7.767-7.766 7.767z" fill="#17c39a" fill-rule="evenodd" data-original="#78c2a4" class=""></path></g><g><path clip-rule="evenodd" d="m112.267 340.36h32.685c4.279 0 7.768 3.486 7.768 7.767v37.702c0 4.28-3.488 7.767-7.768 7.767h-32.685c-4.281 0-7.768-3.486-7.768-7.767v-37.702c.001-4.28 3.487-7.767 7.768-7.767z" fill="#17c39a" fill-rule="evenodd" data-original="#21a1ff" class=""></path></g><g><path clip-rule="evenodd" d="m399.732 340.36h-32.684c-4.279 0-7.766 3.486-7.766 7.767v37.702c0 4.28 3.486 7.767 7.766 7.767h32.684c4.281 0 7.768-3.486 7.768-7.767v-37.702c0-4.28-3.487-7.767-7.768-7.767z" fill="#17c39a" fill-rule="evenodd" data-original="#21a1ff" class=""></path></g><g><path clip-rule="evenodd" d="m120.685 340.36h24.267c4.279 0 7.768 3.486 7.768 7.767v37.702c0 4.28-3.488 7.767-7.768 7.767h-24.267c4.252 0 7.768-3.486 7.768-7.767v-37.702c0-4.28-3.516-7.767-7.768-7.767z" fill="#17c39a" fill-rule="evenodd" data-original="#1991ff" class=""></path></g><g><path clip-rule="evenodd" d="m375.467 340.36h24.265c4.281 0 7.768 3.486 7.768 7.767v37.702c0 4.28-3.486 7.767-7.768 7.767h-24.265c4.279 0 7.767-3.486 7.767-7.767v-37.702c0-4.28-3.487-7.767-7.767-7.767z" fill="#17c39a" fill-rule="evenodd" data-original="#1991ff" class=""></path></g></g><g><path d="m237.533 56.638c-1.105 7.653-4.99 14.4-10.545 19.247-5.529 4.763-12.729 7.683-20.554 7.683-7.852 0-15.023-2.92-20.551-7.683-5.584-4.847-9.467-11.622-10.545-19.304-.34-2.211.369-4.309 1.701-5.896l23.102-30.02c1.334-2.041 3.658-3.401 6.293-3.401h42.067v-9.752c0-4.139 3.346-7.512 7.484-7.512 4.166 0 7.512 3.373 7.512 7.512v9.752h42.067c2.635 0 4.932 1.36 6.293 3.401l23.328 30.303c1.219 1.588 1.758 3.686 1.475 5.67-1.105 7.625-4.961 14.4-10.545 19.247-5.527 4.763-12.699 7.683-20.551 7.683-7.854 0-15.024-2.92-20.554-7.683-5.584-4.847-9.438-11.622-10.543-19.304-.313-2.211.367-4.309 1.699-5.896l14.203-18.426h-26.873v62.164h20.268c5.953 0 11.338 2.438 15.279 6.35 3.911 3.912 6.321 9.326 6.321 15.279s-2.41 11.367-6.321 15.28c-3.941 3.911-9.326 6.35-15.279 6.35h-55.531c-5.953 0-11.367-2.438-15.279-6.35-3.911-3.913-6.351-9.327-6.351-15.28s2.439-11.367 6.351-15.279c3.912-3.911 9.326-6.35 15.279-6.35h20.268v-62.164h-26.871l14.398 18.709c1.249 1.616 1.759 3.685 1.505 5.67zm162.455 291.206h-33.194v38.24h33.194zm-40.706-14.995h48.218c4.139 0 7.512 3.373 7.512 7.512v53.235c0 4.139-3.373 7.483-7.512 7.483h-48.218c-4.139 0-7.512-3.345-7.512-7.483v-53.236c0-4.138 3.373-7.511 7.512-7.511zm-254.782 0h48.22c4.137 0 7.482 3.373 7.482 7.512v53.235c0 4.139-3.346 7.483-7.482 7.483h-48.22c-4.139 0-7.512-3.345-7.512-7.483v-53.236c0-4.138 3.373-7.511 7.512-7.511zm40.706 14.995h-33.222v38.24h33.222zm177.14 149.161v-97.91h-32.147v97.91zm-32.147-112.935h39.659c4.139 0 7.482 3.374 7.482 7.513v105.422h92.099v-169.372l-44.078-25.455c-3.573-2.041-4.819-6.606-2.751-10.178 2.042-3.571 6.606-4.818 10.206-2.749 23.498 13.55 46.998 27.128 70.498 40.706l25.313-43.882-198.428-114.577v58.48l73.222 42.265c3.57 2.068 4.789 6.661 2.721 10.232-2.07 3.572-6.662 4.791-10.234 2.722l-65.708-37.928v136.801zm-115.569 112.935v-105.422c0-4.139 3.373-7.513 7.512-7.513h39.659v-136.8l-139.241 80.391v169.344zm47.171-97.91h-32.148v97.91h32.148zm222.634-62.817v168.238c0 4.139-3.373 7.483-7.512 7.483h-154.236c-4.139 0-7.482-3.345-7.482-7.483v-345.972c0-1.275.34-2.579 1.02-3.77 2.07-3.571 6.633-4.79 10.205-2.721l216.173 124.811c3.572 2.069 4.791 6.633 2.723 10.204l-32.797 56.836c-2.071 3.544-6.636 4.763-10.206 2.722zm-207.64 168.239c0 4.139-3.344 7.483-7.482 7.483h-154.237c-4.139 0-7.512-3.345-7.512-7.483v-168.21l-17.858 10.318c-3.572 2.069-8.165.85-10.233-2.722l-32.797-56.836c-2.07-3.571-.852-8.135 2.721-10.204l93.374-53.915c3.572-2.069 8.135-.85 10.205 2.721 2.068 3.572.85 8.164-2.723 10.233l-86.882 50.173 25.313 43.854 173.115-99.95v-58.48l-82.122 47.425c-3.57 2.069-8.135.851-10.203-2.75-2.099-3.572-.853-8.136 2.721-10.205l93.345-53.915c5.047-2.892 11.254.822 11.254 6.491v345.972zm46.97-395.07h-55.531c-1.814 0-3.457.737-4.678 1.927-1.189 1.22-1.926 2.863-1.926 4.678 0 1.814.736 3.458 1.926 4.678 1.221 1.189 2.863 1.927 4.678 1.927h55.531c1.815 0 3.459-.737 4.648-1.927 1.219-1.22 1.957-2.863 1.957-4.678s-.738-3.458-1.957-4.678c-1.189-1.189-2.833-1.927-4.648-1.927zm32.572-44.872c2.211-1.928 3.912-4.423 4.848-7.258l-15.619-20.296-15.62 20.296c.936 2.835 2.637 5.33 4.848 7.258 2.861 2.466 6.634 3.968 10.772 3.968s7.907-1.502 10.771-3.968zm-99.13 0c2.213-1.928 3.885-4.423 4.848-7.258l-15.62-20.296-15.617 20.296c.934 2.835 2.635 5.33 4.846 7.258 2.863 2.466 6.633 3.968 10.771 3.968s7.881-1.502 10.772-3.968z" fill="#000000" data-original="#000000" class=""></path></g></g></g></svg>