<svg xmlns="http://www.w3.org/2000/svg" version="1.1" xmlns:xlink="http://www.w3.org/1999/xlink" xmlns:svgjs="http://svgjs.com/svgjs" width="512" height="512" x="0" y="0" viewBox="0 0 512 512" style="enable-background:new 0 0 512 512" xml:space="preserve" class=""><g><g xmlns="http://www.w3.org/2000/svg"><g><circle cx="256" cy="256" fill="#17c39a" r="248.5" data-original="#62a4fb" class=""></circle></g><g><path d="m406.078 57.939c31.647 41.7 50.439 93.691 50.439 150.078 0 137.243-111.257 248.5-248.5 248.5-56.387 0-108.378-18.792-150.078-50.439 45.38 59.796 117.205 98.422 198.061 98.422 137.243 0 248.5-111.257 248.5-248.5 0-80.856-38.626-152.681-98.422-198.061z" fill="#17c39a" data-original="#5392f9" class=""></path></g><g><circle cx="256" cy="256" fill="#ffffff" r="202.033" data-original="#4071f7" class=""></circle></g><g><g><path d="m403.431 322.447-24.823-129.89c-.013-.068-.027-.136-.04-.205-1.829-8.977-9.494-15.606-18.641-16.123-9.143-.522-17.509 5.208-20.337 13.922-.064.197-.124.395-.181.593l-23.408 82.114-24.277-82.286c-.06-.204-.124-.406-.192-.608-2.918-8.688-11.34-14.325-20.485-13.713-9.144.613-16.739 7.327-18.47 16.326-.012.065-.025.129-.036.194l-23.437 129.85c-1.685 9.333 4.516 18.265 13.849 19.95 9.332 1.685 18.265-4.516 19.95-13.849l12.818-71.016 21.187 71.814c.06.204.124.407.192.609 2.768 8.241 10.448 13.758 19.133 13.758h.105c8.728-.045 16.402-5.653 19.096-13.954.064-.197.124-.394.181-.593l20.454-71.751 13.628 71.307c1.781 9.316 10.776 15.424 20.091 13.644 9.315-1.783 15.424-10.778 13.643-20.093z" fill="#17c39a" data-original="#f1f6f7" class=""></path></g><g><path d="m199.075 176.197h-73.639c-9.484 0-17.173 7.689-17.173 17.173s7.689 17.173 17.173 17.173h19.498v116.169c0 9.484 7.689 17.173 17.173 17.173s17.173-7.689 17.173-17.173v-116.169h19.795c9.484 0 17.173-7.689 17.173-17.173s-7.689-17.173-17.173-17.173z" fill="#17c39a" data-original="#f1f6f7" class=""></path></g></g><g><path d="m405.246 392.367c3.159 2.682 7.891 2.293 10.571-.863 32.058-37.761 49.713-85.884 49.713-135.504 0-115.535-93.995-209.53-209.53-209.53s-209.53 93.995-209.53 209.53 93.995 209.53 209.53 209.53c48.944 0 96.559-17.228 134.073-48.51 3.181-2.653 3.609-7.382.957-10.563-2.653-3.181-7.382-3.609-10.563-.957-34.823 29.038-79.027 45.03-124.467 45.03-107.264 0-194.53-87.266-194.53-194.53s87.266-194.53 194.53-194.53 194.53 87.266 194.53 194.53c0 46.068-16.389 90.743-46.147 125.796-2.681 3.158-2.295 7.891.863 10.571z" fill="#000000" data-original="#000000" class=""></path><path d="m437.019 74.981c-48.353-48.352-112.64-74.981-181.019-74.981-62.035 0-121.89 22.482-168.539 63.306-3.117 2.728-3.433 7.466-.705 10.583 2.729 3.117 7.468 3.434 10.583.705 43.914-38.429 100.261-59.594 158.661-59.594 64.372 0 124.892 25.069 170.412 70.588s70.588 106.04 70.588 170.412-25.069 124.892-70.588 170.412-106.04 70.588-170.412 70.588-124.892-25.069-170.412-70.588-70.588-106.04-70.588-170.412c0-57.76 20.754-113.635 58.439-157.332 2.705-3.137 2.355-7.873-.782-10.578-3.136-2.704-7.872-2.355-10.578.782-40.032 46.419-62.079 105.773-62.079 167.128 0 68.379 26.629 132.666 74.981 181.019 48.353 48.352 112.64 74.981 181.019 74.981s132.666-26.629 181.019-74.981c48.352-48.353 74.981-112.64 74.981-181.019s-26.629-132.666-74.981-181.019z" fill="#000000" data-original="#000000" class=""></path><path d="m241.62 349.951c6.486 1.171 13.039-.254 18.453-4.013 5.414-3.758 9.041-9.4 10.211-15.886l7.197-39.877 12.232 41.46c.087.296.18.591.277.879 3.792 11.287 14.338 18.87 26.243 18.87h.144c11.97-.062 22.496-7.753 26.195-19.151.09-.279.175-.558.255-.839l11.8-41.394 7.703 40.302c2.553 13.362 15.503 22.154 28.866 19.603 13.363-2.554 22.156-15.503 19.603-28.865l-24.816-129.852-.065-.332c-2.508-12.312-13.021-21.406-25.562-22.114-12.537-.721-24.017 7.136-27.902 19.107-.089.277-.174.556-.255.839l-16.319 57.246-16.96-57.484c-.084-.287-.175-.573-.275-.874-4.001-11.913-15.553-19.647-28.097-18.809-12.541.841-22.958 10.049-25.342 22.439l-23.479 130.081c-1.171 6.485.254 13.039 4.013 18.453 3.754 5.414 9.395 9.04 15.88 10.211zm-5.135-25.999 23.437-129.85c.002-.015.017-.094.02-.109 1.088-5.655 5.861-9.874 11.606-10.259 5.758-.387 11.042 3.16 12.87 8.601.04.119.078.239.114.359l24.277 82.286c.941 3.19 3.87 5.378 7.193 5.378h.035c3.337-.016 6.263-2.234 7.178-5.444l23.407-82.109c.034-.117.069-.234.103-.338 1.778-5.479 7.022-9.086 12.78-8.749 5.748.324 10.565 4.491 11.714 10.132.001.008.021.107.023.115l24.824 129.89c1.001 5.239-2.446 10.315-7.685 11.316-5.235 1.002-10.316-2.447-11.317-7.685l-13.628-71.307c-.652-3.413-3.562-5.931-7.034-6.085-3.451-.144-6.593 2.095-7.545 5.437l-20.455 71.751c-.033.116-.068.231-.101.333-1.693 5.217-6.516 8.741-12.068 8.77-5.454 0-10.286-3.474-12.024-8.65-.038-.11-.072-.221-.107-.338l-21.188-71.814c-.945-3.202-3.884-5.377-7.19-5.377-.136 0-.272.003-.41.011-3.47.188-6.357 2.736-6.975 6.157l-12.818 71.016c-.459 2.542-1.88 4.754-4.003 6.228s-4.69 2.033-7.233 1.573c-2.542-.459-4.754-1.88-6.228-4.003-1.473-2.124-2.031-4.693-1.572-7.236z" fill="#000000" data-original="#000000" class=""></path><path d="m199.08 203.04h-19.8c-4.142 0-7.5 3.358-7.5 7.5v29.98c0 4.142 3.358 7.5 7.5 7.5s7.5-3.358 7.5-7.5v-22.48h12.3c13.603 0 24.67-11.067 24.67-24.67s-11.067-24.67-24.67-24.67h-73.64c-13.609 0-24.68 11.067-24.68 24.67s11.071 24.67 24.68 24.67h11.99v108.67c0 13.603 11.071 24.67 24.68 24.67 13.603 0 24.67-11.067 24.67-24.67v-51.19c0-4.142-3.358-7.5-7.5-7.5s-7.5 3.358-7.5 7.5v51.19c0 5.332-4.338 9.67-9.67 9.67-5.337 0-9.68-4.338-9.68-9.67v-116.17c0-4.142-3.358-7.5-7.5-7.5h-19.49c-5.338 0-9.68-4.338-9.68-9.67s4.342-9.67 9.68-9.67h73.64c5.332 0 9.67 4.338 9.67 9.67s-4.338 9.67-9.67 9.67z" fill="#000000" data-original="#000000" class=""></path></g></g></g></svg>