<svg xmlns="http://www.w3.org/2000/svg" version="1.1" xmlns:xlink="http://www.w3.org/1999/xlink" xmlns:svgjs="http://svgjs.com/svgjs" width="512" height="512" x="0" y="0" viewBox="0 0 511.999 511.999" style="enable-background:new 0 0 512 512" xml:space="preserve" class=""><g><g xmlns="http://www.w3.org/2000/svg"><g><path d="m411.499 49.501c5.523 0 10 4.477 10 10v434.998c0 5.523-4.477 10-10 10h-310.999c-5.523 0-10-4.477-10-10v-434.998c0-5.523 4.477-10 10-10z" fill="#ffffff" data-original="#faf2f3" class=""></path><g fill="#f0e5e0"><path d="m421.499 59.501v434.998c0 5.52-4.48 10-10 10h-30c5.52 0 10-4.48 10-10v-434.998c0-5.52-4.48-10-10-10h30c5.52 0 10 4.48 10 10z" fill="#17c39a" data-original="#f0e5e0" class=""></path><path d="m381.499 94.501c5.523 0 10 4.477 10 10v25c0 5.523-4.477 10-10 10h-250.999c-5.523 0-10-4.477-10-10v-25c0-5.523 4.477-10 10-10z" fill="#17c39a" data-original="#f0e5e0" class=""></path><path d="m381.499 169.501c5.523 0 10 4.477 10 10v25c0 5.523-4.477 10-10 10h-250.999c-5.523 0-10-4.477-10-10v-25c0-5.523 4.477-10 10-10z" fill="#17c39a" data-original="#f0e5e0" class=""></path><path d="m149.5 364.5c-8.284 0-15-6.716-15-15 0-8.284 6.716-15 15-15 8.284 0 15 6.716 15 15 0 8.284-6.716 15-15 15z" fill="#17c39a" data-original="#f0e5e0" class=""></path><path d="m149.5 289.5c-8.284 0-15-6.716-15-15 0-8.284 6.716-15 15-15 8.284 0 15 6.716 15 15 0 8.284-6.716 15-15 15z" fill="#17c39a" data-original="#f0e5e0" class=""></path></g><path d="m351.499 409.5c13.807 0 25 11.193 25 25 0 13.807-11.193 25-25 25-13.807 0-25-11.193-25-25 0-13.808 11.193-25 25-25z" fill="#17c39a" data-original="#c3aff0" class=""></path><path d="m256.002 184.501c-4.484 0-8.772-1.774-11.967-4.92-28.325-27.889-96.196-66.716-96.196-109.765v-1.354c0-32.858 26.018-60.297 58.869-60.948 20.155-.4 38.102 9.128 49.291 24.023l10 13.048 59 51.416z" fill="#17c39a" data-original="#fc7585" class=""></path><path d="m364.159 68.461v1.35c0 43.06-67.85 81.89-96.199 109.779-3.19 3.14-7.48 4.91-11.96 4.91s-8.77-1.77-11.96-4.92c-3.92-3.86-8.6-7.93-13.75-12.18l42.48-39.59c1.64-1.51 1.1-4.23-1-5.01l-31.18-11.59c-2.1-.78-2.63-3.51-.98-5.02l33.02-30.38c1.65-1.51 1.12-4.24-.98-5.02l-31.84-11.87c-1.89-.71-2.56-3.04-1.33-4.64l17.52-22.739c11.19-14.9 29.14-24.43 49.29-24.03 32.849.65 58.869 28.09 58.869 60.95z" fill="#17c39a" data-original="#fc8d94" class=""></path><path d="m364.159 68.461v1.35c0 43.06-67.85 81.89-96.199 109.779-3.19 3.14-7.48 4.91-11.96 4.91s-8.77-1.77-11.96-4.92c-.97-.95-1.98-1.92-3.04-2.89 29.86-27.64 93.16-65.29 93.16-106.88v-1.35c0-28.12-19.06-52.28-45.15-59.05 5.18-1.35 10.65-2.01 16.28-1.9 32.849.651 58.869 28.091 58.869 60.951z" fill="#17c39a" data-original="#fc7585" class=""></path></g><g><path d="m421.5 446.999c4.143 0 7.5-3.357 7.5-7.5v-380c0-9.649-7.851-17.5-17.5-17.5h-45.162c-10.126-24.154-33.608-41.446-60.899-41.987-18.583-.35-36.526 7.044-49.444 20.086-12.944-13.058-30.857-20.432-49.435-20.086-27.29.542-50.773 17.833-60.898 41.987h-45.162c-9.649 0-17.5 7.851-17.5 17.5v435c0 9.649 7.851 17.5 17.5 17.5h311c9.649 0 17.5-7.851 17.5-17.5v-20c0-4.143-3.357-7.5-7.5-7.5s-7.5 3.357-7.5 7.5v20c0 1.379-1.121 2.5-2.5 2.5h-311c-1.378 0-2.5-1.121-2.5-2.5v-435c0-1.379 1.122-2.5 2.5-2.5h40.821c-.633 3.734-.982 7.559-.982 11.461v1.354c0 5.847 1.073 11.578 2.996 17.186h-12.835c-9.649 0-17.5 7.851-17.5 17.5v25c0 9.649 7.851 17.5 17.5 17.5 0 0 62.348.029 62.58.007 6.072 5.057 12.135 9.874 17.976 14.521.198.158.395.314.593.472h-81.149c-9.649 0-17.5 7.851-17.5 17.5v25c0 9.649 7.851 17.5 17.5 17.5h33.833c4.142 0 7.5-3.357 7.5-7.5s-3.358-7.5-7.5-7.5h-33.833c-1.378 0-2.5-1.121-2.5-2.5v-25c0-1.379 1.122-2.5 2.5-2.5h99.558c3.21 2.752 6.154 5.403 8.716 7.925 11.483 9.432 22.966 9.434 34.45.006 2.576-2.534 5.538-5.198 8.768-7.965.223.02.447.034.675.034h98.833c1.379 0 2.5 1.121 2.5 2.5v25c0 1.379-1.121 2.5-2.5 2.5h-182.167c-4.142 0-7.5 3.357-7.5 7.5s3.358 7.5 7.5 7.5h182.167c9.649 0 17.5-7.851 17.5-17.5v-25c0-9.649-7.851-17.5-17.5-17.5h-81.135c.184-.147.367-.292.552-.439 5.927-4.716 18.012-14.561 18.012-14.561h62.571c9.649 0 17.5-7.851 17.5-17.5v-25c0-9.649-7.851-17.5-17.5-17.5h-12.834c1.923-5.608 2.995-11.338 2.995-17.186v-1.354c0-3.902-.349-7.727-.982-11.461h40.821c1.379 0 2.5 1.121 2.5 2.5v380c0 4.143 3.357 7.5 7.5 7.5zm-291-315c-1.378 0-2.5-1.121-2.5-2.5v-25c0-1.379 1.122-2.5 2.5-2.5h20.056c6.479 10.526 15.506 20.547 25.501 30zm24.839-62.185v-1.354c0-28.909 23.111-52.888 51.518-53.45.346-.008.69-.011 1.035-.011 14.614 0 28.579 6.143 38.485 16.738l-13.835 17.964c-2.026 2.63-2.69 6.105-1.776 9.297s3.316 5.789 6.426 6.948l24.966 9.309-27.628 25.409c-2.711 2.491-3.907 6.137-3.198 9.751s3.193 6.537 6.644 7.819l24.328 9.048-32.454 30.068c-3.065-2.476-6.232-4.997-9.455-7.562-28.984-23.061-65.056-51.763-65.056-79.974zm136.239 80.007c-10.908 8.68-21.212 16.877-28.875 24.417-1.809 1.78-4.188 2.761-6.701 2.761s-4.894-.981-6.705-2.764c-2.375-2.339-5.005-4.741-7.828-7.201l36.394-33.718c2.695-2.497 3.879-6.14 3.164-9.744-.715-3.605-3.197-6.521-6.64-7.8l-24.3-9.037 27.626-25.406c2.708-2.491 3.902-6.136 3.195-9.747-.708-3.611-3.189-6.534-6.637-7.819l-26.125-9.74 13.849-17.983c10.145-13.502 26.262-21.341 43.146-21.029 28.407.562 51.519 24.541 51.519 53.45v1.354c.001 28.223-36.086 56.936-65.082 80.006zm89.922-47.822c1.379 0 2.5 1.121 2.5 2.5v25c0 1.379-1.121 2.5-2.5 2.5h-45.547c9.994-9.453 19.018-19.474 25.495-30z" fill="#000000" data-original="#000000" class=""></path><path d="m149.5 371.999c12.407 0 22.5-10.094 22.5-22.5s-10.093-22.5-22.5-22.5-22.5 10.094-22.5 22.5 10.093 22.5 22.5 22.5zm0-30c4.136 0 7.5 3.364 7.5 7.5s-3.364 7.5-7.5 7.5-7.5-3.364-7.5-7.5 3.364-7.5 7.5-7.5z" fill="#000000" data-original="#000000" class=""></path><path d="m149.5 296.999c12.407 0 22.5-10.094 22.5-22.5s-10.093-22.5-22.5-22.5-22.5 10.094-22.5 22.5 10.093 22.5 22.5 22.5zm0-30c4.136 0 7.5 3.364 7.5 7.5s-3.364 7.5-7.5 7.5-7.5-3.364-7.5-7.5 3.364-7.5 7.5-7.5z" fill="#000000" data-original="#000000" class=""></path><path d="m376.5 251.999h-37.833c-4.143 0-7.5 3.357-7.5 7.5s3.357 7.5 7.5 7.5h37.833c4.143 0 7.5-3.357 7.5-7.5s-3.358-7.5-7.5-7.5z" fill="#000000" data-original="#000000" class=""></path><path d="m308.667 251.999h-114.167c-4.142 0-7.5 3.357-7.5 7.5s3.358 7.5 7.5 7.5h114.167c4.143 0 7.5-3.357 7.5-7.5s-3.358-7.5-7.5-7.5z" fill="#000000" data-original="#000000" class=""></path><path d="m376.5 281.999h-37.833c-4.143 0-7.5 3.357-7.5 7.5s3.357 7.5 7.5 7.5h37.833c4.143 0 7.5-3.357 7.5-7.5s-3.358-7.5-7.5-7.5z" fill="#000000" data-original="#000000" class=""></path><path d="m308.667 281.999h-114.167c-4.142 0-7.5 3.357-7.5 7.5s3.358 7.5 7.5 7.5h114.167c4.143 0 7.5-3.357 7.5-7.5s-3.358-7.5-7.5-7.5z" fill="#000000" data-original="#000000" class=""></path><path d="m376.5 326.999h-37.833c-4.143 0-7.5 3.357-7.5 7.5s3.357 7.5 7.5 7.5h37.833c4.143 0 7.5-3.357 7.5-7.5s-3.358-7.5-7.5-7.5z" fill="#000000" data-original="#000000" class=""></path><path d="m308.667 326.999h-114.167c-4.142 0-7.5 3.357-7.5 7.5s3.358 7.5 7.5 7.5h114.167c4.143 0 7.5-3.357 7.5-7.5s-3.358-7.5-7.5-7.5z" fill="#000000" data-original="#000000" class=""></path><path d="m376.5 356.999h-37.833c-4.143 0-7.5 3.357-7.5 7.5s3.357 7.5 7.5 7.5h37.833c4.143 0 7.5-3.357 7.5-7.5s-3.358-7.5-7.5-7.5z" fill="#000000" data-original="#000000" class=""></path><path d="m316.167 364.499c0-4.143-3.357-7.5-7.5-7.5h-114.167c-4.142 0-7.5 3.357-7.5 7.5s3.358 7.5 7.5 7.5h114.167c4.142 0 7.5-3.357 7.5-7.5z" fill="#000000" data-original="#000000" class=""></path><path d="m351.5 401.999c-17.921 0-32.5 14.579-32.5 32.5s14.579 32.5 32.5 32.5 32.5-14.579 32.5-32.5-14.579-32.5-32.5-32.5zm0 50c-9.649 0-17.5-7.851-17.5-17.5s7.851-17.5 17.5-17.5 17.5 7.851 17.5 17.5-7.851 17.5-17.5 17.5z" fill="#000000" data-original="#000000" class=""></path><path d="m131.017 456.133c3.388 2.381 8.065 1.57 10.45-1.817l11.333-16.104 12.437 22.05c2.222 3.939 6.376 6.359 10.885 6.359.083 0 .166-.001.249-.003 4.605-.091 8.772-2.692 10.875-6.791l16.343-31.852 12.839 29.061c2.004 4.536 6.481 7.448 11.433 7.448.045 0 .091 0 .137-.001 5.005-.054 9.481-3.074 11.405-7.695l15.33-36.829c1.592-3.824-.218-8.214-4.042-9.806-3.823-1.593-8.215.218-9.807 4.042l-13.09 31.448-12.603-28.524c-1.966-4.449-6.208-7.302-11.07-7.442-4.867-.143-9.263 2.46-11.485 6.788l-16.616 32.383-12.1-21.451c-2.119-3.757-5.957-6.129-10.265-6.344-4.309-.219-8.362 1.763-10.845 5.29l-13.61 19.34c-2.384 3.387-1.571 8.065 1.817 10.45z" fill="#000000" data-original="#000000" class=""></path></g></g></g></svg>