<svg xmlns="http://www.w3.org/2000/svg" version="1.1" xmlns:xlink="http://www.w3.org/1999/xlink" xmlns:svgjs="http://svgjs.com/svgjs" width="512" height="512" x="0" y="0" viewBox="0 0 512 512" style="enable-background:new 0 0 512 512" xml:space="preserve" class=""><g><g xmlns="http://www.w3.org/2000/svg"><g><g><path d="m474.5 457.499h-437c-16.569 0-30-13.431-30-30v-196c0-16.569 13.431-30 30-30h437c16.569 0 30 13.431 30 30v196c0 16.568-13.431 30-30 30z" fill="#ffffff" data-original="#e9f5ff" class=""></path><path d="m474.5 201.499h-30c16.569 0 30 13.431 30 30v196c0 16.568-13.431 30-30 30h30c16.569 0 30-13.432 30-30v-196c0-16.569-13.431-30-30-30z" fill="#ffffff" data-original="#d7ebfd" class=""></path><path d="m81.595 201.499h-44.095c-16.569 0-30 13.431-30 30v196c0 16.568 13.431 30 30 30h44.095v-246.96z" fill="#17c39a" data-original="#3c6d91" class=""></path><path d="m224.595 282.499h-94c-2.209 0-4-1.791-4-4v-28c0-2.209 1.791-4 4-4h94c2.209 0 4 1.791 4 4v28c0 2.209-1.791 4-4 4z" fill="#17c39a" data-original="#3c6d91" class=""></path><path d="m224.595 246.499h-30c2.209 0 4 1.791 4 4v28c0 2.209-1.791 4-4 4h30c2.209 0 4-1.791 4-4v-28c0-2.21-1.791-4-4-4z" fill="#17c39a" data-original="#345e80" class=""></path></g><g><path d="m359.367 258.744 5.604 15.608c.66 1.839 2.553 2.932 4.476 2.584l16.319-2.951c2.026-.366 3.787-1.606 4.817-3.388l113.38-196.379c1.105-1.913.449-4.36-1.464-5.464l-23.762-13.719c-1.913-1.105-4.36-.449-5.464 1.464l-113.38 196.379c-1.029 1.783-1.222 3.929-.526 5.866z" fill="#17c39a" data-original="#b1d8fc" class=""></path><path d="m502.499 68.754-23.762-13.719c-1.913-1.104-4.359-.449-5.464 1.464l-3.645 6.313 10.758 6.211c1.913 1.104 2.569 3.551 1.464 5.464l-113.38 196.38c-.825 1.429-2.126 2.5-3.651 3.061l.153.425c.66 1.839 2.553 2.932 4.476 2.584l16.319-2.951c2.026-.366 3.788-1.606 4.817-3.388l113.38-196.379c1.104-1.914.449-4.36-1.465-5.465z" fill="#0d7058" data-original="#88c7fc" class=""></path><path d="m502.499 68.754-23.762-13.719c-1.913-1.104-4.359-.449-5.464 1.464l-13 22.517 30.691 17.719 13-22.517c1.104-1.913.449-4.359-1.465-5.464z" fill="#17c39a" data-original="#3c6d91" class=""></path><path d="m502.499 68.754-23.762-13.719c-1.913-1.104-4.359-.449-5.464 1.464l-3.645 6.313 10.758 6.211c1.913 1.104 2.569 3.551 1.464 5.464l-7.355 12.739 16.469 9.508 13-22.517c1.104-1.912.449-4.358-1.465-5.463z" fill="#17c39a" data-original="#345e80" class=""></path></g></g><path d="m151.115 418.208h-24.521c-4.143 0-7.5 3.357-7.5 7.5s3.357 7.5 7.5 7.5h24.521c4.143 0 7.5-3.357 7.5-7.5s-3.357-7.5-7.5-7.5zm-20.52-128.209h94c6.341 0 11.5-5.159 11.5-11.5v-28c0-6.341-5.159-11.5-11.5-11.5h-94c-6.341 0-11.5 5.159-11.5 11.5v28c0 6.34 5.159 11.5 11.5 11.5zm3.5-36h87v21h-87zm321.972 53.186h-329.472c-4.143 0-7.5 3.357-7.5 7.5s3.357 7.5 7.5 7.5h329.473c4.143 0 7.5-3.357 7.5-7.5s-3.358-7.5-7.501-7.5zm-29.99 103.496c-6.222 5.397-12.048 7.906-17.325 7.477-3.66-.303-6.114-2.286-10.136-5.766-4.192-3.628-9.411-8.144-17.356-9.195-25.741-3.418-43.239 13.839-46.482 17.332-2.818 3.036-2.643 7.781.393 10.6 3.036 2.818 7.781 2.642 10.6-.393 1.448-1.56 14.678-15.157 33.521-12.67 3.326.441 5.781 2.441 9.512 5.67 4.454 3.854 9.997 8.65 18.713 9.371 9.997.827 19.013-2.96 28.393-11.096 3.129-2.714 3.465-7.451.75-10.58-2.718-3.128-7.454-3.464-10.583-.75zm29.99-73.496h-329.472c-4.143 0-7.5 3.357-7.5 7.5s3.357 7.5 7.5 7.5h329.473c4.143 0 7.5-3.357 7.5-7.5s-3.358-7.5-7.501-7.5zm18.433-143.186h-31.031l66.99-116.03c3.171-5.491 1.282-12.538-4.21-15.709l-23.764-13.721c-5.49-3.169-12.537-1.28-15.708 4.211l-12.999 22.514-.001.002c0 .001-.001.001-.001.002l-68.548 118.73h-347.728c-20.678 0-37.5 16.822-37.5 37.5v196c0 20.678 16.822 37.5 37.5 37.5h437c20.678 0 37.5-16.822 37.5-37.5v-196c0-20.677-16.822-37.499-37.5-37.499zm3.519-130.719 17.7 10.22-7.5 12.99-17.701-10.219zm-15.001 25.981 17.701 10.219-96.514 167.167-13.177 2.383-4.524-12.602zm-388.923 360.738h-36.595c-12.406 0-22.5-10.094-22.5-22.5v-196c0-12.406 10.094-22.5 22.5-22.5h36.595zm422.905-22.5c0 12.406-10.094 22.5-22.5 22.5h-385.405v-241h287.473l-23.169 40.131c-2.136 3.699-2.533 8.128-1.091 12.148.001 0 .001.001.001.001l5.573 15.522-4.234 7.334c-2.071 3.588-.842 8.175 2.745 10.245 3.524 2.034 8.154.88 10.245-2.745l4.234-7.334 16.229-2.935c4.204-.76 7.841-3.317 9.978-7.018l37.729-65.35h39.692c12.406 0 22.5 10.094 22.5 22.5zm-190.933-60.314h-179.472c-4.143 0-7.5 3.357-7.5 7.5s3.357 7.5 7.5 7.5h179.473c4.143 0 7.5-3.357 7.5-7.5s-3.358-7.5-7.501-7.5zm-94.952 51.023h-24.521c-4.143 0-7.5 3.357-7.5 7.5s3.357 7.5 7.5 7.5h24.521c4.143 0 7.5-3.357 7.5-7.5s-3.357-7.5-7.5-7.5zm60 0h-24.521c-4.143 0-7.5 3.357-7.5 7.5s3.357 7.5 7.5 7.5h24.521c4.143 0 7.5-3.357 7.5-7.5s-3.357-7.5-7.5-7.5z" fill="#000000" data-original="#000000" class=""></path></g></g></svg>